<svg xmlns="http://www.w3.org/2000/svg" xmlns:xlink="http://www.w3.org/1999/xlink" viewBox="0 0 387.41 501"><defs><style>.cls-1{fill:none;}.cls-2{fill:#ef5e72;}.cls-3{fill:#563a82;stroke-miterlimit:10;stroke:url(#Unnamed_Pattern);}</style><pattern id="Unnamed_Pattern" data-name="Unnamed Pattern" width="386.41" height="500" patternTransform="translate(237.02 82.97)" patternUnits="userSpaceOnUse" viewBox="0 0 386.41 500"><rect class="cls-1" width="386.41" height="500"/><path class="cls-2" d="M20,0C20,25,0,25,0,50s20,25,20,50S0,125,0,150s20,25,20,50S0,225,0,250s20,25,20,50S0,325,0,350s20,25,20,50S0,425,0,450s20,25,20,50H386.41V0Z"/></pattern></defs><g id="Layer_2" data-name="Layer 2"><g id="Layer_1-2" data-name="Layer 1"><path class="cls-3" d="M20.5.5c0,25-20,25-20,50s20,25,20,50-20,25-20,50,20,25,20,50-20,25-20,50,20,25,20,50-20,25-20,50,20,25,20,50-20,25-20,50,20,25,20,50H386.91V.5Z"/></g></g></svg>