<?xml version="1.0" encoding="utf-8"?>
<svg xmlns="http://www.w3.org/2000/svg" xmlns:xlink="http://www.w3.org/1999/xlink" style="margin: auto; background: none; display: block; z-index: 1; position: relative; shape-rendering: auto;" width="1219" height="609" preserveAspectRatio="xMidYMid" viewBox="0 0 1219 609">
<g transform=""><linearGradient id="lg-0.2758052298223037" x1="0" x2="1" y1="0" y2="0">
  <stop stop-color="#27282a" offset="0"></stop>
  <stop stop-color="#fefefe" offset="1"></stop>
</linearGradient><path d="M 1190.53 305 C 1190.53 479.764 915.628 679.789 749.06 734.181 C 582.493 788.573 199.311 818.02 96.3316 676.648 C -6.6483 535.276 72.2669 130.498 175.247 -10.874 C 278.227 -152.246 602.256 -239.864 768.824 -185.472 C 935.392 -131.081 1190.53 130.236 1190.53 305" fill="url(#lg-0.2758052298223037)" opacity="0.4">
  <animate attributeName="d" dur="10s" repeatCount="indefinite" keyTimes="0;0.3333333333333333;0.6666666666666666;1" calcmod="spline" keySplines="0.3 0.1 0.7 0.9;0.3 0.1 0.7 0.9;0.3 0.1 0.7 0.9" begin="-4s" values="M 1324 305 C 1324 487 910 642 737 698 C 564 754 217 814 110 667 C 3 520 -21 71 86 -76 C 193 -223 591 -227 764 -171 C 937 -115 1324 123 1324 305;M 1172 305 C 1172 468 896 659 741 709 C 586 759 235 778 139 646 C 43 514 50 100 146 -32 C 242 -164 599 -190 754 -139 C 909 -88 1172 142 1172 305;M 1158 305 C 1158 478 917 689 752 743 C 587 797 195 819 93 679 C -9 539 95 145 197 5 C 299 -135 605 -243 770 -189 C 935 -135 1158 132 1158 305;M 1324 305 C 1324 487 910 642 737 698 C 564 754 217 814 110 667 C 3 520 -21 71 86 -76 C 193 -223 591 -227 764 -171 C 937 -115 1324 123 1324 305"></animate>
</path><path d="M 1213.65 305 C 1213.65 462.784 892.196 663.432 742.412 712.628 C 592.628 761.824 255.709 756.899 163.121 629.311 C 70.5328 501.724 58.1907 99.231 150.583 -28.357 C 242.975 -155.945 594.764 -159.839 744.548 -110.643 C 894.332 -61.4471 1213.65 147.216 1213.65 305" fill="url(#lg-0.2758052298223037)" opacity="0.4">
  <animate attributeName="d" dur="10s" repeatCount="indefinite" keyTimes="0;0.3333333333333333;0.6666666666666666;1" calcmod="spline" keySplines="0.3 0.1 0.7 0.9;0.3 0.1 0.7 0.9;0.3 0.1 0.7 0.9" begin="-4s" values="M 1163 305 C 1163 466 893 657 740 707 C 587 757 234 777 139 647 C 44 517 100 133 194 3 C 288 -127 602 -192 755 -142 C 908 -92 1163 144 1163 305;M 1234 305 C 1234 465 899 679 747 728 C 595 777 297 729 203 600 C 109 471 107 137 201 8 C 295 -121 594 -164 746 -115 C 898 -66 1234 145 1234 305;M 1226 305 C 1226 462 892 665 743 714 C 594 763 261 752 169 625 C 77 498 48 91 140 -36 C 232 -163 593 -152 742 -103 C 891 -54 1226 148 1226 305;M 1163 305 C 1163 466 893 657 740 707 C 587 757 234 777 139 647 C 44 517 100 133 194 3 C 288 -127 602 -192 755 -142 C 908 -92 1163 144 1163 305"></animate>
</path><path d="M 1208.75 305 C 1208.75 466.588 912.02 713.905 758.432 764.101 C 604.844 814.297 330.432 706.96 235.04 576.372 C 139.648 445.784 77.9248 118.472 173.317 -12.1155 C 268.709 -142.703 575.095 -111.638 728.683 -61.4418 C 882.271 -11.2458 1208.75 143.412 1208.75 305" fill="url(#lg-0.2758052298223037)" opacity="0.4">
  <animate attributeName="d" dur="10s" repeatCount="indefinite" keyTimes="0;0.3333333333333333;0.6666666666666666;1" calcmod="spline" keySplines="0.3 0.1 0.7 0.9;0.3 0.1 0.7 0.9;0.3 0.1 0.7 0.9" begin="-4s" values="M 1138 305 C 1138 469 908 693 752 744 C 596 795 324 715 227 582 C 130 449 53 104 150 -29 C 247 -162 596 -184 752 -133 C 908 -82 1138 141 1138 305;M 1233 305 C 1233 482 912 662 744 717 C 576 772 300 748 196 605 C 92 462 11 88 115 -55 C 219 -198 607 -261 775 -206 C 943 -151 1233 128 1233 305;M 1226 305 C 1226 466 913 719 760 769 C 607 819 332 705 237 575 C 142 445 84 122 179 -8 C 274 -138 570 -94 723 -44 C 876 6 1226 144 1226 305;M 1138 305 C 1138 469 908 693 752 744 C 596 795 324 715 227 582 C 130 449 53 104 150 -29 C 247 -162 596 -184 752 -133 C 908 -82 1138 141 1138 305"></animate>
</path><path d="M 1170.25 305 C 1170.25 471.332 893.407 641.834 735.271 693.01 C 577.136 744.185 225.407 789.256 127.447 654.513 C 29.4873 519.769 52.5275 105.663 150.487 -29.0805 C 248.447 -163.824 579.648 -141.528 737.784 -90.3517 C 895.919 -39.1758 1170.25 138.668 1170.25 305" fill="url(#lg-0.2758052298223037)" opacity="0.4">
  <animate attributeName="d" dur="10s" repeatCount="indefinite" keyTimes="0;0.3333333333333333;0.6666666666666666;1" calcmod="spline" keySplines="0.3 0.1 0.7 0.9;0.3 0.1 0.7 0.9;0.3 0.1 0.7 0.9" begin="-4s" values="M 1200 305 C 1200 485 932 715 761 771 C 590 827 264 778 158 632 C 52 486 67 133 173 -13 C 279 -159 570 -156 741 -100 C 912 -44 1200 125 1200 305;M 1208 305 C 1208 483 936 733 767 788 C 598 843 242 792 137 648 C 32 504 83 142 187 -2 C 291 -146 591 -214 760 -159 C 929 -104 1208 127 1208 305;M 1163 305 C 1163 468 884 624 729 674 C 574 724 216 792 120 660 C 24 528 49 99 145 -33 C 241 -165 582 -138 737 -88 C 892 -38 1163 142 1163 305;M 1200 305 C 1200 485 932 715 761 771 C 590 827 264 778 158 632 C 52 486 67 133 173 -13 C 279 -159 570 -156 741 -100 C 912 -44 1200 125 1200 305"></animate>
</path><path d="M 1145.84 305 C 1145.84 471.256 893.141 640.85 734.885 692.066 C 576.628 743.282 223.744 791.317 125.507 656.668 C 27.2712 522.02 61.6378 112.211 159.874 -22.4375 C 258.11 -157.086 580.94 -145 739.196 -93.7839 C 897.452 -42.5678 1145.84 138.744 1145.84 305" fill="url(#lg-0.2758052298223037)" opacity="0.4">
  <animate attributeName="d" dur="10s" repeatCount="indefinite" keyTimes="0;0.3333333333333333;0.6666666666666666;1" calcmod="spline" keySplines="0.3 0.1 0.7 0.9;0.3 0.1 0.7 0.9;0.3 0.1 0.7 0.9" begin="-4s" values="M 1178 305 C 1178 460 865 591 718 639 C 571 687 235 768 144 643 C 53 518 134 150 225 25 C 316 -100 593 -145 740 -97 C 887 -49 1178 150 1178 305;M 1184 305 C 1184 477 900 641 736 694 C 572 747 245 782 144 643 C 43 504 54 113 155 -26 C 256 -165 599 -222 763 -169 C 927 -116 1184 133 1184 305;M 1138 305 C 1138 474 900 653 739 705 C 578 757 221 797 121 660 C 21 523 44 103 144 -34 C 244 -171 578 -145 739 -93 C 900 -41 1138 136 1138 305;M 1178 305 C 1178 460 865 591 718 639 C 571 687 235 768 144 643 C 53 518 134 150 225 25 C 316 -100 593 -145 740 -97 C 887 -49 1178 150 1178 305"></animate>
</path></g>
</svg>