<?xml version="1.0" encoding="utf-8"?>
<svg xmlns="http://www.w3.org/2000/svg" xmlns:xlink="http://www.w3.org/1999/xlink" style="margin: auto; background: none; display: block; z-index: 1; position: relative; shape-rendering: auto;" width="1219" height="609" preserveAspectRatio="xMidYMid" viewBox="0 0 1219 609">
<g transform=""><linearGradient id="lg-0.7930678757415448" x1="0" x2="1" y1="0" y2="0">
  <stop stop-color="#7254c9" offset="0"></stop>
  <stop stop-color="#100e16" offset="1"></stop>
</linearGradient><path d="M 1254.02 305 C 1254.02 477.885 916.185 690.686 752.3 744.129 C 588.415 797.571 229.303 793.875 127.861 653.99 C 26.4182 514.104 5.75262 79.7526 107.195 -60.1324 C 208.638 -200.017 586.718 -183.693 750.603 -130.251 C 914.488 -76.8084 1254.02 132.115 1254.02 305" fill="url(#lg-0.7930678757415448)" opacity="0.44000000000000006">
  <animate attributeName="d" dur="10s" repeatCount="indefinite" keyTimes="0;0.3333333333333333;0.6666666666666666;1" calcmod="spline" keySplines="0.3 0.1 0.7 0.9;0.3 0.1 0.7 0.9;0.3 0.1 0.7 0.9" begin="-4s" values="M 1249 305 C 1249 479 895 621 730 675 C 565 729 270 766 168 625 C 66 484 13 87 115 -54 C 217 -195 604 -240 769 -186 C 934 -132 1249 131 1249 305;M 1236 305 C 1236 471 920 722 762 773 C 604 824 278 751 180 616 C 82 481 95 137 193 2 C 291 -133 596 -191 754 -139 C 912 -87 1236 139 1236 305;M 1258 305 C 1258 477 933 746 770 799 C 607 852 197 816 96 677 C -5 538 0 74 101 -65 C 202 -204 573 -139 736 -86 C 899 -33 1258 133 1258 305;M 1249 305 C 1249 479 895 621 730 675 C 565 729 270 766 168 625 C 66 484 13 87 115 -54 C 217 -195 604 -240 769 -186 C 934 -132 1249 131 1249 305"></animate>
</path><path d="M 1228.08 305 C 1228.08 473.655 892.23 629.725 732.017 681.61 C 571.805 733.495 223.948 793.247 124.62 656.477 C 25.2927 519.707 34.8955 95.9129 134.223 -40.8571 C 233.551 -177.627 578.15 -143.53 738.362 -91.6446 C 898.575 -39.7595 1228.08 136.345 1228.08 305" fill="url(#lg-0.7930678757415448)" opacity="0.44000000000000006">
  <animate attributeName="d" dur="10s" repeatCount="indefinite" keyTimes="0;0.3333333333333333;0.6666666666666666;1" calcmod="spline" keySplines="0.3 0.1 0.7 0.9;0.3 0.1 0.7 0.9;0.3 0.1 0.7 0.9" begin="-4s" values="M 1237 305 C 1237 477 890 613 727 666 C 564 719 239 786 138 647 C 37 508 65 121 166 -18 C 267 -157 567 -119 730 -66 C 893 -13 1237 133 1237 305;M 1271 305 C 1271 479 903 646 738 700 C 573 754 191 824 89 683 C -13 542 37 104 139 -37 C 241 -178 600 -229 765 -175 C 930 -121 1271 131 1271 305;M 1221 305 C 1221 471 894 643 736 694 C 578 745 212 799 114 664 C 16 529 11 76 109 -59 C 207 -194 587 -163 745 -112 C 903 -61 1221 139 1221 305;M 1237 305 C 1237 477 890 613 727 666 C 564 719 239 786 138 647 C 37 508 65 121 166 -18 C 267 -157 567 -119 730 -66 C 893 -13 1237 133 1237 305"></animate>
</path><path d="M 1183.07 305 C 1183.07 477.328 917.753 693.16 753.425 746.603 C 589.098 800.045 217.798 802.725 115.913 663.397 C 14.0279 524.07 2.93726 76.8049 104.38 -62.5227 C 205.822 -201.85 566.902 -122.69 731.23 -69.2474 C 895.557 -15.8049 1183.07 132.672 1183.07 305" fill="url(#lg-0.7930678757415448)" opacity="0.44000000000000006">
  <animate attributeName="d" dur="10s" repeatCount="indefinite" keyTimes="0;0.3333333333333333;0.6666666666666666;1" calcmod="spline" keySplines="0.3 0.1 0.7 0.9;0.3 0.1 0.7 0.9;0.3 0.1 0.7 0.9" begin="-4s" values="M 1163 305 C 1163 479 925 711 759 765 C 593 819 244 786 141 645 C 38 504 -11 69 91 -72 C 193 -213 563 -116 729 -62 C 895 -8 1163 131 1163 305;M 1228 305 C 1228 462 871 599 721 648 C 571 697 230 774 138 647 C 46 520 77 112 169 -15 C 261 -142 588 -139 738 -90 C 888 -41 1228 148 1228 305;M 1199 305 C 1199 476 912 679 749 732 C 586 785 197 816 96 678 C -5 540 14 83 115 -55 C 216 -193 570 -128 733 -75 C 896 -22 1199 134 1199 305;M 1163 305 C 1163 479 925 711 759 765 C 593 819 244 786 141 645 C 38 504 -11 69 91 -72 C 193 -213 563 -116 729 -62 C 895 -8 1163 131 1163 305"></animate>
</path><path d="M 1135.72 305 C 1135.72 468.965 894.54 652.725 739.017 702.937 C 583.495 753.15 251.753 766.868 155.328 634.672 C 58.9024 502.477 81.7595 123.247 177.627 -8.94776 C 273.495 -141.143 592.39 -172.721 747.913 -122.066 C 903.436 -71.4113 1135.72 141.035 1135.72 305" fill="url(#lg-0.7930678757415448)" opacity="0.44000000000000006">
  <animate attributeName="d" dur="10s" repeatCount="indefinite" keyTimes="0;0.3333333333333333;0.6666666666666666;1" calcmod="spline" keySplines="0.3 0.1 0.7 0.9;0.3 0.1 0.7 0.9;0.3 0.1 0.7 0.9" begin="-4s" values="M 1153 305 C 1153 479 899 636 734 689 C 569 742 259 773 157 633 C 55 493 55 116 157 -24 C 259 -164 608 -253 773 -199 C 938 -145 1153 131 1153 305;M 1244 305 C 1244 482 919 685 751 740 C 583 795 301 747 197 604 C 93 461 97 151 201 8 C 305 -135 563 -125 731 -70 C 899 -15 1244 128 1244 305;M 1122 305 C 1122 461 891 666 743 714 C 595 762 246 762 154 636 C 62 510 103 129 194 3 C 285 -123 580 -109 728 -61 C 876 -13 1122 149 1122 305;M 1153 305 C 1153 479 899 636 734 689 C 569 742 259 773 157 633 C 55 493 55 116 157 -24 C 259 -164 608 -253 773 -199 C 938 -145 1153 131 1153 305"></animate>
</path><path d="M 1229.87 305 C 1229.87 473.77 900 651.69 739.23 704.132 C 578.46 756.575 258.833 768.362 159.505 631.592 C 60.1777 494.822 98.4425 142.098 197.77 5.32753 C 297.098 -131.443 590.247 -183.725 751.017 -131.282 C 911.787 -78.8397 1229.87 136.23 1229.87 305" fill="url(#lg-0.7930678757415448)" opacity="0.44000000000000006">
  <animate attributeName="d" dur="10s" repeatCount="indefinite" keyTimes="0;0.3333333333333333;0.6666666666666666;1" calcmod="spline" keySplines="0.3 0.1 0.7 0.9;0.3 0.1 0.7 0.9;0.3 0.1 0.7 0.9" begin="-4s" values="M 1202 305 C 1202 476 900 645 737 698 C 574 751 275 760 174 621 C 73 482 99 146 200 7 C 301 -132 583 -167 746 -114 C 909 -61 1202 134 1202 305;M 1231 305 C 1231 472 881 601 723 653 C 565 705 277 752 179 617 C 81 482 88 132 186 -3 C 284 -138 581 -145 739 -93 C 897 -41 1231 138 1231 305;M 1252 305 C 1252 472 900 657 741 709 C 582 761 246 775 148 640 C 50 505 98 139 196 4 C 294 -131 596 -197 755 -145 C 914 -93 1252 138 1252 305;M 1202 305 C 1202 476 900 645 737 698 C 574 751 275 760 174 621 C 73 482 99 146 200 7 C 301 -132 583 -167 746 -114 C 909 -61 1202 134 1202 305"></animate>
</path></g>
</svg>