<?xml version="1.0" encoding="utf-8"?>
<svg xmlns="http://www.w3.org/2000/svg" xmlns:xlink="http://www.w3.org/1999/xlink" style="margin: auto; background: none; display: block; z-index: 1; position: relative; shape-rendering: auto;" width="1219" height="609" preserveAspectRatio="xMidYMid" viewBox="0 0 1219 609">
<g transform=""><linearGradient id="lg-0.1638684989791217" x1="0" x2="1" y1="0" y2="0">
  <stop stop-color="#27282a" offset="0"></stop>
  <stop stop-color="#7254c9" offset="1"></stop>
</linearGradient><path d="M 1275.69 305 C 1275.69 474.529 911.874 686.083 750.345 738.418 C 588.817 790.753 266.005 763.241 166.288 626.141 C 66.5707 489.042 63.6919 117.513 163.409 -19.5859 C 263.126 -156.685 581.995 -159.906 743.524 -107.047 C 905.052 -54.1885 1275.69 135.471 1275.69 305" fill="url(#lg-0.1638684989791217)" opacity="0.4">
  <animate attributeName="d" dur="10s" repeatCount="indefinite" keyTimes="0;0.3333333333333333;0.6666666666666666;1" calcmod="spline" keySplines="0.3 0.1 0.7 0.9;0.3 0.1 0.7 0.9;0.3 0.1 0.7 0.9" begin="-4s" values="M 1316 305 C 1316 485 948 762 776 818 C 604 874 277 769 171 623 C 65 477 15 95 121 -51 C 227 -197 571 -162 743 -106 C 915 -50 1316 125 1316 305;M 1239 305 C 1239 465 879 617 727 666 C 575 715 256 758 162 629 C 68 500 108 138 202 9 C 296 -120 592 -158 744 -108 C 896 -58 1239 145 1239 305;M 1202 305 C 1202 462 871 603 722 651 C 573 699 242 765 150 638 C 58 511 105 132 197 5 C 289 -122 596 -161 745 -113 C 894 -65 1202 148 1202 305;M 1316 305 C 1316 485 948 762 776 818 C 604 874 277 769 171 623 C 65 477 15 95 121 -51 C 227 -197 571 -162 743 -106 C 915 -50 1316 125 1316 305"></animate>
</path><path d="M 1177.04 305 C 1177.04 471.571 898.241 655.534 740.194 707.057 C 582.146 758.581 261.439 763.325 163.916 628.278 C 66.3923 493.231 41.7542 98.1363 139.278 -36.9108 C 236.801 -171.958 587.057 -164.266 745.104 -112.743 C 903.152 -61.2189 1177.04 138.429 1177.04 305" fill="url(#lg-0.1638684989791217)" opacity="0.4">
  <animate attributeName="d" dur="10s" repeatCount="indefinite" keyTimes="0;0.3333333333333333;0.6666666666666666;1" calcmod="spline" keySplines="0.3 0.1 0.7 0.9;0.3 0.1 0.7 0.9;0.3 0.1 0.7 0.9" begin="-4s" values="M 1165 305 C 1165 470 904 677 747 728 C 590 779 285 745 188 611 C 91 477 25 84 122 -50 C 219 -184 608 -225 765 -174 C 922 -123 1165 140 1165 305;M 1188 305 C 1188 473 893 636 734 688 C 575 740 240 780 142 644 C 44 508 57 111 155 -25 C 253 -161 568 -109 727 -57 C 886 -5 1188 137 1188 305;M 1211 305 C 1211 473 910 684 750 736 C 590 788 283 749 184 613 C 85 477 82 129 181 -7 C 280 -143 565 -104 725 -52 C 885 0 1211 137 1211 305;M 1165 305 C 1165 470 904 677 747 728 C 590 779 285 745 188 611 C 91 477 25 84 122 -50 C 219 -184 608 -225 765 -174 C 922 -123 1165 140 1165 305"></animate>
</path><path d="M 1185.38 305 C 1185.38 478.529 903.194 647.566 738.141 701.424 C 573.089 755.283 241.236 786.769 138.995 646.146 C 36.7542 505.524 72.1363 128.906 174.377 -11.7172 C 276.618 -152.34 578.953 -164.35 744.005 -110.492 C 909.057 -56.633 1185.38 131.471 1185.38 305" fill="url(#lg-0.1638684989791217)" opacity="0.4">
  <animate attributeName="d" dur="10s" repeatCount="indefinite" keyTimes="0;0.3333333333333333;0.6666666666666666;1" calcmod="spline" keySplines="0.3 0.1 0.7 0.9;0.3 0.1 0.7 0.9;0.3 0.1 0.7 0.9" begin="-4s" values="M 1188 305 C 1188 489 910 635 735 692 C 560 749 236 803 128 654 C 20 505 58 131 166 -18 C 274 -167 580 -201 755 -144 C 930 -87 1188 121 1188 305;M 1183 305 C 1183 469 897 659 741 710 C 585 761 246 772 149 639 C 52 506 85 127 182 -6 C 279 -139 578 -131 734 -80 C 890 -29 1183 141 1183 305;M 1279 305 C 1279 488 955 774 781 831 C 607 888 209 822 101 674 C -7 526 68 137 175 -11 C 282 -159 592 -233 766 -176 C 940 -119 1279 122 1279 305;M 1188 305 C 1188 489 910 635 735 692 C 560 749 236 803 128 654 C 20 505 58 131 166 -18 C 274 -167 580 -201 755 -144 C 930 -87 1188 121 1188 305"></animate>
</path><path d="M 1137.47 305 C 1137.47 467.476 891.382 647.717 736.906 697.717 C 582.429 747.717 270.503 751.492 175.027 620.015 C 79.5505 488.539 112.759 144.141 208.236 12.665 C 303.712 -118.811 600.906 -194.67 755.382 -144.194 C 909.859 -93.7172 1137.47 142.524 1137.47 305" fill="url(#lg-0.1638684989791217)" opacity="0.4">
  <animate attributeName="d" dur="10s" repeatCount="indefinite" keyTimes="0;0.3333333333333333;0.6666666666666666;1" calcmod="spline" keySplines="0.3 0.1 0.7 0.9;0.3 0.1 0.7 0.9;0.3 0.1 0.7 0.9" begin="-4s" values="M 1127 305 C 1127 468 894 654 739 704 C 584 754 226 785 130 653 C 34 521 107 141 203 9 C 299 -123 603 -202 758 -151 C 913 -100 1127 142 1127 305;M 1147 305 C 1147 467 889 642 735 692 C 581 742 311 721 216 590 C 121 459 118 147 213 16 C 308 -115 599 -188 753 -138 C 907 -88 1147 143 1147 305;M 1128 305 C 1128 468 880 610 725 660 C 570 710 289 739 193 607 C 97 475 30 85 125 -47 C 220 -179 601 -197 756 -147 C 911 -97 1128 142 1128 305;M 1127 305 C 1127 468 894 654 739 704 C 584 754 226 785 130 653 C 34 521 107 141 203 9 C 299 -123 603 -202 758 -151 C 913 -100 1127 142 1127 305"></animate>
</path><path d="M 1186.96 305 C 1186.96 475.712 907.608 668.64 744.896 721.21 C 582.183 773.781 249.889 776.545 149.748 638.357 C 49.6062 500.168 66.335 120.665 166.476 -17.5236 C 266.618 -155.712 593.183 -198.781 755.896 -146.21 C 918.608 -93.6397 1186.96 134.288 1186.96 305" fill="url(#lg-0.1638684989791217)" opacity="0.4">
  <animate attributeName="d" dur="10s" repeatCount="indefinite" keyTimes="0;0.3333333333333333;0.6666666666666666;1" calcmod="spline" keySplines="0.3 0.1 0.7 0.9;0.3 0.1 0.7 0.9;0.3 0.1 0.7 0.9" begin="-4s" values="M 1199 305 C 1199 471 883 610 725 661 C 567 712 319 720 222 586 C 125 452 70 117 167 -17 C 264 -151 578 -137 736 -86 C 894 -35 1199 139 1199 305;M 1176 305 C 1176 480 930 722 763 776 C 596 830 187 828 84 686 C -19 544 63 124 166 -18 C 269 -160 607 -255 774 -201 C 941 -147 1176 130 1176 305;M 1094 305 C 1094 460 869 602 722 650 C 575 698 333 696 242 571 C 151 446 147 160 238 35 C 329 -90 570 -73 717 -25 C 864 23 1094 150 1094 305;M 1199 305 C 1199 471 883 610 725 661 C 567 712 319 720 222 586 C 125 452 70 117 167 -17 C 264 -151 578 -137 736 -86 C 894 -35 1199 139 1199 305"></animate>
</path></g>
</svg>