<?xml version="1.0" encoding="utf-8"?>
<svg viewBox="0 0 152.44 176.63" xmlns="http://www.w3.org/2000/svg" style="height: 100%; width: 100%; background: none; shape-rendering: auto;" width="128px" height="128px"><g class="ldl-scale" style="transform-origin: 50% 50%; transform: rotate(0deg) scale(0.8, 0.8);"><g class="ldl-ani" style="transform-origin: 76.22px 88.315px; transform: rotate(0deg); animation: 2.17391s linear 0s infinite normal forwards running spin-4f124a5e-2976-45b3-a9b3-5c5440fa9c14;"><defs><style>.cls-1{fill:#fff;}.cls-2{fill:#6c5ba7;}</style></defs><g class="ldl-layer"><g class="ldl-ani"><g data-name="Layer 2" id="Layer_2"><g class="ldl-layer"><g class="ldl-ani"><g data-name="Layer 1" id="Layer_1-2"><text></text><g class="ldl-layer"><g class="ldl-ani"><g data-name="1644327310-licensed" id="_1644327310-licensed"><g class="ldl-layer"><g class="ldl-ani"><path d="M10.63,84.25c-.41-3.55-1.22-7.7-1-11.39A66.42,66.42,0,0,1,125.74,32l6.94-6.61A76,76,0,0,0,0,72.4c-.21,4.24.48,8.31,1,12.39C4,84.34,7.29,84.57,10.63,84.25Z" class="cls-1" style="fill: rgb(255, 255, 255);"></path></g></g></g></g></g><g class="ldl-layer"><g class="ldl-ani"><path d="M142.27,77a109.88,109.88,0,0,1-2.44,18l8.93,2.37c2-6.21,3.63-12.41,3.68-19.25a84,84,0,0,0-3.05-24.52L140.28,59C141.91,67.62,142.76,67.09,142.27,77Z" class="cls-2" style="fill: rgb(108, 91, 167);"></path></g></g><g class="ldl-layer"><g class="ldl-ani"><path d="M37.84,141.34H49.4L78.77,86.45l22.89,54.89H112a76.19,76.19,0,0,0,39.07-53l-9.65-.46a66.66,66.66,0,0,1-31.67,43.79L87.56,79h-18L41.79,131.8c-17.25-10.52-29.32-30.45-31.63-51.27L.43,80.07C2.7,105.17,16.82,129.07,37.84,141.34Z" class="cls-2" style="fill: rgb(108, 91, 167);"></path></g></g><g class="ldl-layer"><g class="ldl-ani"><path d="M140.06,56.65c-.13-.28-.24-.55-.38-.84l10.08-.75c-3.21-11.29-9.18-21-17.12-29.66L125.53,30l-.87.79a65.89,65.89,0,0,1,15.25,25.81Z" class="cls-2" style="fill: rgb(108, 91, 167);"></path></g></g><g class="ldl-layer"><g class="ldl-ani"><polygon points="139.68 55.81 140.28 58.96 145.13 63.35 149.15 54.21 138.55 47.26 139.68 55.81" class="cls-2" style="fill: rgb(108, 91, 167);"></polygon></g></g></g></g></g></g></g></g></g></g><style id="spin-4f124a5e-2976-45b3-a9b3-5c5440fa9c14" data-anikit="">@keyframes spin-4f124a5e-2976-45b3-a9b3-5c5440fa9c14
{
  0% {
    animation-timing-function: cubic-bezier(0.5856,0.0703,0.4143,0.9297);
    transform: rotate(0deg);
  }
  100% {
    transform: rotate(360deg);
  }
}</style><!-- [ldio] generated by https://loading.io/ --></svg>