<svg xmlns="http://www.w3.org/2000/svg" xmlns:xlink="http://www.w3.org/1999/xlink" width="408" height="280" viewBox="0 0 408 280"><defs><style>.a{fill:url(#a);}.b{opacity:0.4;mix-blend-mode:soft-light;isolation:isolate;fill:url(#d);}.c{filter:url(#b);}</style><linearGradient id="a" x1="-0.836" y1="-1.12" x2="1.836" y2="2.12" gradientUnits="objectBoundingBox"><stop offset="0" stop-color="#e6e7ed"/><stop offset="1" stop-color="#f7f8fa"/></linearGradient><filter id="b" x="0" y="0" width="408" height="280" filterUnits="userSpaceOnUse"><feOffset dx="-7.071" dy="-7.071" input="SourceAlpha"/><feGaussianBlur stdDeviation="8" result="c"/><feFlood flood-color="#fafbfc"/><feComposite operator="in" in2="c"/><feComposite in="SourceGraphic"/></filter><linearGradient id="d" x1="0.256" y1="-0.093" x2="0.744" y2="1.093" gradientUnits="objectBoundingBox"><stop offset="0" stop-color="#40485d"/><stop offset="1" stop-color="#606a82"/></linearGradient></defs><g transform="translate(31.071 31.071)"><g class="c" transform="matrix(1, 0, 0, 1, -31.07, -31.07)"><rect class="a" width="360" height="232" rx="20" transform="translate(31.07 31.07)"/></g><path class="b" d="M1971,3516h320a20,20,0,0,1,20,20v192a20,20,0,0,1-20,20H1971a20,20,0,0,1-20-20V3536A20,20,0,0,1,1971,3516Z" transform="translate(-1951 -3516)"/></g></svg>